<?xml version="1.0" encoding="UTF-8"?>
<!DOCTYPE svg PUBLIC "-//W3C//DTD SVG 1.1//EN" "http://www.w3.org/Graphics/SVG/1.1/DTD/svg11.dtd">
<svg xmlns="http://www.w3.org/2000/svg" version="1.1" width="1258px" height="263px" style="shape-rendering:geometricPrecision; text-rendering:geometricPrecision; image-rendering:optimizeQuality; fill-rule:evenodd; clip-rule:evenodd" xmlns:xlink="http://www.w3.org/1999/xlink">
<g><path style="opacity:1" fill="#fefefe" d="M -0.5,-0.5 C 418.833,-0.5 838.167,-0.5 1257.5,-0.5C 1257.5,87.1667 1257.5,174.833 1257.5,262.5C 838.167,262.5 418.833,262.5 -0.5,262.5C -0.5,174.833 -0.5,87.1667 -0.5,-0.5 Z"/></g>
<g><path style="opacity:1" fill="#010004" d="M 77.5,67.5 C 82.8333,67.5 88.1667,67.5 93.5,67.5C 93.5,103.833 93.5,140.167 93.5,176.5C 113.833,176.5 134.167,176.5 154.5,176.5C 154.5,181.5 154.5,186.5 154.5,191.5C 128.833,191.5 103.167,191.5 77.5,191.5C 77.5,150.167 77.5,108.833 77.5,67.5 Z"/></g>
<g><path style="opacity:1" fill="#060405" d="M 361.5,166.5 C 361.741,164.102 361.074,162.102 359.5,160.5C 357.738,147.977 358.572,135.644 362,123.5C 373.98,99.8402 391.813,94.0069 415.5,106C 417.351,107.684 419.018,109.517 420.5,111.5C 421.499,96.8485 421.833,82.1818 421.5,67.5C 426.167,67.5 430.833,67.5 435.5,67.5C 435.5,108.833 435.5,150.167 435.5,191.5C 431.167,191.5 426.833,191.5 422.5,191.5C 422.666,187.486 422.499,183.486 422,179.5C 412.145,192.844 399.312,196.677 383.5,191C 373.042,185.546 365.709,177.38 361.5,166.5 Z"/></g>
<g><path style="opacity:1" fill="#030205" d="M 519.5,67.5 C 540.203,67.0854 560.869,67.5854 581.5,69C 604.191,77.0862 611.025,92.2529 602,114.5C 598.95,119.051 595.117,122.718 590.5,125.5C 612.66,136.48 618.16,153.146 607,175.5C 599.446,184.697 589.613,189.864 577.5,191C 558.17,191.5 538.836,191.667 519.5,191.5C 519.5,150.167 519.5,108.833 519.5,67.5 Z"/></g>
<g><path style="opacity:1" fill="#0b000a" d="M 728.5,67.5 C 733.5,67.5 738.5,67.5 743.5,67.5C 743.5,108.833 743.5,150.167 743.5,191.5C 738.5,191.5 733.5,191.5 728.5,191.5C 728.5,150.167 728.5,108.833 728.5,67.5 Z"/></g>
<g><path style="opacity:1" fill="#fcfdfd" d="M 588.5,92.5 C 589.229,97.1304 589.563,101.797 589.5,106.5C 589.262,110.138 587.596,112.971 584.5,115C 581.052,116.927 577.385,118.261 573.5,119C 560.838,119.5 548.171,119.667 535.5,119.5C 535.5,107.167 535.5,94.8333 535.5,82.5C 549.874,82.1307 564.207,82.6307 578.5,84C 583.228,85.2306 586.561,88.064 588.5,92.5 Z"/></g>
<g><path style="opacity:1" fill="#e8a357" d="M 588.5,92.5 C 589.973,95.0169 590.64,97.8502 590.5,101C 590.494,103.033 590.161,104.866 589.5,106.5C 589.563,101.797 589.229,97.1304 588.5,92.5 Z"/></g>
<g><path style="opacity:1" fill="#070305" d="M 247.5,127.5 C 247.565,130.428 248.232,133.095 249.5,135.5C 249.666,144.173 249.5,152.84 249,161.5C 243.011,182.511 229.011,193.178 207,193.5C 188.8,192.765 176.3,184.099 169.5,167.5C 169.279,164.933 168.612,162.599 167.5,160.5C 165.333,147.165 166.5,134.165 171,121.5C 179.101,106.86 191.601,99.5267 208.5,99.5C 227.763,100.284 240.763,109.617 247.5,127.5 Z"/></g>
<g><path style="opacity:1" fill="#080508" d="M 296.5,99.5 C 308.891,98.0121 320.558,100.179 331.5,106C 336.296,109.703 339.129,114.537 340,120.5C 340.333,138.167 340.667,155.833 341,173.5C 341.223,179.717 342.389,185.717 344.5,191.5C 339.456,191.827 334.456,191.494 329.5,190.5C 328.146,187.231 326.98,183.898 326,180.5C 309.237,195.059 291.07,197.226 271.5,187C 263.476,178.199 261.31,168.032 265,156.5C 270.831,147.666 278.998,142.5 289.5,141C 301.53,139.635 313.364,137.468 325,134.5C 327.442,122.872 322.942,115.705 311.5,113C 303.971,111.928 296.638,112.595 289.5,115C 284.611,118.602 281.611,123.435 280.5,129.5C 275.485,128.915 270.485,128.248 265.5,127.5C 267.498,115.998 273.832,107.832 284.5,103C 288.709,102.119 292.709,100.953 296.5,99.5 Z"/></g>
<g><path style="opacity:1" fill="#080508" d="M 661.5,99.5 C 673.891,98.0121 685.558,100.179 696.5,106C 701.296,109.703 704.129,114.537 705,120.5C 705.333,138.167 705.667,155.833 706,173.5C 706.223,179.717 707.389,185.717 709.5,191.5C 704.456,191.827 699.456,191.494 694.5,190.5C 693.146,187.231 691.98,183.898 691,180.5C 674.237,195.059 656.07,197.226 636.5,187C 628.476,178.199 626.31,168.032 630,156.5C 635.831,147.666 643.998,142.5 654.5,141C 666.53,139.635 678.364,137.468 690,134.5C 692.442,122.872 687.942,115.705 676.5,113C 668.971,111.928 661.638,112.595 654.5,115C 649.611,118.602 646.611,123.435 645.5,129.5C 640.485,128.915 635.485,128.248 630.5,127.5C 632.498,115.998 638.832,107.832 649.5,103C 653.709,102.119 657.709,100.953 661.5,99.5 Z"/></g>
<g><path style="opacity:1" fill="#080508" d="M 795.5,99.5 C 807.891,98.0121 819.558,100.179 830.5,106C 835.296,109.703 838.129,114.537 839,120.5C 839.333,138.167 839.667,155.833 840,173.5C 840.223,179.717 841.389,185.717 843.5,191.5C 838.456,191.827 833.456,191.494 828.5,190.5C 827.146,187.231 825.98,183.898 825,180.5C 808.237,195.059 790.07,197.226 770.5,187C 762.476,178.199 760.31,168.032 764,156.5C 769.831,147.666 777.998,142.5 788.5,141C 800.53,139.635 812.364,137.468 824,134.5C 826.442,122.872 821.942,115.705 810.5,113C 802.971,111.928 795.638,112.595 788.5,115C 783.611,118.602 780.611,123.435 779.5,129.5C 774.485,128.915 769.485,128.248 764.5,127.5C 766.498,115.998 772.832,107.832 783.5,103C 787.709,102.119 791.709,100.953 795.5,99.5 Z"/></g>
<g><path style="opacity:1" fill="#060104" d="M 898.5,99.5 C 908.605,98.527 917.939,100.694 926.5,106C 931.166,110.176 933.999,115.342 935,121.5C 935.5,144.831 935.667,168.164 935.5,191.5C 930.5,191.5 925.5,191.5 920.5,191.5C 920.667,169.497 920.5,147.497 920,125.5C 917.016,116.548 910.683,112.215 901,112.5C 888.067,113.13 880.4,119.797 878,132.5C 877.5,152.164 877.333,171.831 877.5,191.5C 872.833,191.5 868.167,191.5 863.5,191.5C 863.5,161.5 863.5,131.5 863.5,101.5C 867.833,101.5 872.167,101.5 876.5,101.5C 876.334,105.514 876.501,109.514 877,113.5C 882.57,106.147 889.737,101.48 898.5,99.5 Z"/></g>
<g><path style="opacity:1" fill="#080508" d="M 957.5,167.5 C 957.279,164.933 956.612,162.599 955.5,160.5C 955.5,159.833 955.5,159.167 955.5,158.5C 955.307,148.806 955.64,139.139 956.5,129.5C 961.897,109.785 974.897,99.7845 995.5,99.5C 1015.4,99.5747 1027.07,109.241 1030.5,128.5C 1026.1,128.795 1021.77,129.462 1017.5,130.5C 1011.14,113.15 999.478,108.316 982.5,116C 976.744,119.678 973.077,124.845 971.5,131.5C 970.335,141.149 970.168,150.816 971,160.5C 977.495,179.496 989.995,184.996 1008.5,177C 1013.79,171.916 1017.13,165.749 1018.5,158.5C 1023.14,159.298 1027.81,159.964 1032.5,160.5C 1029.72,179.11 1019.06,189.943 1000.5,193C 979.691,195.267 965.358,186.767 957.5,167.5 Z"/></g>
<g><path style="opacity:1" fill="#060306" d="M 1075.5,99.5 C 1099.39,97.5138 1114.89,107.847 1122,130.5C 1123.21,137.112 1123.71,143.778 1123.5,150.5C 1101.17,150.5 1078.83,150.5 1056.5,150.5C 1059,174.858 1072,184.025 1095.5,178C 1101.55,174.405 1105.55,169.239 1107.5,162.5C 1112.54,163.256 1117.54,164.256 1122.5,165.5C 1114.49,187.276 1098.83,196.443 1075.5,193C 1056.55,189.05 1045.38,177.55 1042,158.5C 1039.93,144.129 1041.93,130.462 1048,117.5C 1054.88,107.823 1064.04,101.823 1075.5,99.5 Z"/></g>
<g><path style="opacity:1" fill="#030103" d="M 1170.5,99.5 C 1177.75,98.9802 1184.42,100.647 1190.5,104.5C 1188.86,108.769 1187.53,113.102 1186.5,117.5C 1169.45,110.525 1159.79,116.191 1157.5,134.5C 1156.5,153.488 1156.17,172.488 1156.5,191.5C 1151.83,191.5 1147.17,191.5 1142.5,191.5C 1142.5,161.5 1142.5,131.5 1142.5,101.5C 1146.83,101.5 1151.17,101.5 1155.5,101.5C 1155.33,105.514 1155.5,109.514 1156,113.5C 1159.43,107.231 1164.27,102.564 1170.5,99.5 Z"/></g>
<g><path style="opacity:1" fill="#fbfbfa" d="M 201.5,112.5 C 218.001,110.849 228.834,117.849 234,133.5C 235.133,143.985 234.467,154.318 232,164.5C 225.802,177.183 215.636,182.35 201.5,180C 187.059,173.637 180.392,162.47 181.5,146.5C 180.575,130.525 187.242,119.192 201.5,112.5 Z"/></g>
<g><path style="opacity:1" fill="#fdfdfc" d="M 419.5,128.5 C 421.214,137.399 421.881,146.399 421.5,155.5C 420.93,170.978 412.93,179.311 397.5,180.5C 385.71,178.213 378.21,171.213 375,159.5C 374.205,149.46 374.538,139.46 376,129.5C 382.156,114.172 392.989,109.339 408.5,115C 413.857,118.184 417.524,122.684 419.5,128.5 Z"/></g>
<g><path style="opacity:1" fill="#fcfcfc" d="M 1104.5,125.5 C 1105.38,129.462 1106.04,133.462 1106.5,137.5C 1090.17,137.5 1073.83,137.5 1057.5,137.5C 1059.53,119.64 1069.53,111.473 1087.5,113C 1095.31,114.321 1100.98,118.487 1104.5,125.5 Z"/></g>
<g><path style="opacity:1" fill="#d79f60" d="M 1104.5,125.5 C 1107.31,129.211 1107.98,133.211 1106.5,137.5C 1106.04,133.462 1105.38,129.462 1104.5,125.5 Z"/></g>
<g><path style="opacity:1" fill="#2d67b1" d="M 247.5,127.5 C 249.04,129.838 249.706,132.505 249.5,135.5C 248.232,133.095 247.565,130.428 247.5,127.5 Z"/></g>
<g><path style="opacity:1" fill="#fcfcfc" d="M 535.5,134.5 C 548.504,134.333 561.504,134.5 574.5,135C 593.419,138.004 599.586,148.504 593,166.5C 589.386,172.063 584.219,175.23 577.5,176C 563.504,176.5 549.504,176.667 535.5,176.5C 535.5,162.5 535.5,148.5 535.5,134.5 Z"/></g>
<g><path style="opacity:1" fill="#000000" d="M 454.5,139.5 C 469.833,139.5 485.167,139.5 500.5,139.5C 500.5,144.5 500.5,149.5 500.5,154.5C 485.167,154.5 469.833,154.5 454.5,154.5C 454.5,149.5 454.5,144.5 454.5,139.5 Z"/></g>
<g><path style="opacity:1" fill="#cf863d" d="M 419.5,128.5 C 420.776,130.562 421.61,132.896 422,135.5C 422.821,142.346 422.654,149.013 421.5,155.5C 421.881,146.399 421.214,137.399 419.5,128.5 Z"/></g>
<g><path style="opacity:1" fill="#7c3719" d="M 956.5,129.5 C 955.64,139.139 955.307,148.806 955.5,158.5C 954.343,150.01 954.176,141.343 955,132.5C 955.232,131.263 955.732,130.263 956.5,129.5 Z"/></g>
<g><path style="opacity:1" fill="#fbfaf8" d="M 323.5,146.5 C 328.765,165.1 321.765,176.6 302.5,181C 293.878,183.207 286.712,181.04 281,174.5C 277.048,164.242 280.215,157.409 290.5,154C 301.868,152.557 312.868,150.057 323.5,146.5 Z"/></g>
<g><path style="opacity:1" fill="#fbfaf8" d="M 688.5,146.5 C 693.765,165.1 686.765,176.6 667.5,181C 658.878,183.207 651.712,181.04 646,174.5C 642.048,164.242 645.215,157.409 655.5,154C 666.868,152.557 677.868,150.057 688.5,146.5 Z"/></g>
<g><path style="opacity:1" fill="#fbfaf8" d="M 822.5,146.5 C 827.765,165.1 820.765,176.6 801.5,181C 792.878,183.207 785.712,181.04 780,174.5C 776.048,164.242 779.215,157.409 789.5,154C 800.868,152.557 811.868,150.057 822.5,146.5 Z"/></g>
<g><path style="opacity:1" fill="#e3ac6c" d="M 167.5,160.5 C 168.612,162.599 169.279,164.933 169.5,167.5C 167.837,165.562 167.171,163.228 167.5,160.5 Z"/></g>
<g><path style="opacity:1" fill="#dea665" d="M 955.5,160.5 C 956.612,162.599 957.279,164.933 957.5,167.5C 955.837,165.562 955.171,163.228 955.5,160.5 Z"/></g>
<g><path style="opacity:1" fill="#dfa969" d="M 359.5,160.5 C 361.074,162.102 361.741,164.102 361.5,166.5C 359.926,164.898 359.259,162.898 359.5,160.5 Z"/></g>
</svg>
